<svg xmlns="http://www.w3.org/2000/svg" viewBox="0 0 285.33 491.51"><defs><style>.cls-1{fill:#4564a7;}</style></defs><g id="Layer_2" data-name="Layer 2"><g id="Layer_1-2" data-name="Layer 1"><polygon class="cls-1" points="145.92 326.82 142.8 328.2 139.68 326.82 59.12 291.38 0.26 311.29 142.8 374.01 285.33 311.29 226.47 291.38 145.92 326.82"/><polygon class="cls-1" points="145.92 269.32 142.8 270.7 139.68 269.32 59.12 233.88 0.26 253.79 142.8 316.51 285.33 253.79 226.47 233.88 145.92 269.32"/><polygon class="cls-1" points="138.4 0 0 197.61 138.4 258.51 138.4 0"/><polygon class="cls-1" points="146.93 383.1 146.93 491.34 283.72 322.03 146.93 383.1"/><polygon class="cls-1" points="137.75 383.16 0.83 322.03 137.75 491.51 137.75 383.16"/><polygon class="cls-1" points="146.93 0.46 146.93 258.39 285 197.61 146.93 0.46"/></g></g></svg>